<svg width="607" height="607" viewBox="0 0 607 607" fill="none" xmlns="http://www.w3.org/2000/svg">
<rect x="20" y="20" width="567" height="567" rx="80" fill="url(#paint0_radial)" stroke="white" stroke-width="40"/>
<path d="M465.182 490.797L465.179 490.797C462.56 490.446 459.666 488.514 457.785 485.131C457.784 485.13 457.784 485.129 457.783 485.129L444.717 461.613L435.975 466.47L444.717 461.613C438.869 451.09 427.779 444.553 415.725 444.553H277.468C265.999 444.553 256.574 435.128 256.574 423.66V323.255C256.574 311.787 265.999 302.362 277.468 302.362H455.106C466.575 302.362 476 311.787 476 323.255V423.66V481.446C476 487.093 471.057 491.587 465.182 490.797Z" fill="url(#paint1_linear)" stroke="white" stroke-width="20"/>
<path d="M159.819 375.405L159.817 375.409C156.726 380.978 150.219 383.969 143.66 382.302C137.725 380.793 133 374.65 133 367.186V330.979V292.362V137.894C133 126.425 142.425 117 153.894 117H408.766C420.235 117 429.66 126.425 429.66 137.894V300.085C429.66 311.554 420.235 320.979 408.766 320.979H214.121C199.263 320.979 185.586 329.037 178.372 342.015L178.371 342.016L159.819 375.405Z" fill="url(#paint2_linear)" stroke="white" stroke-width="20"/>
<path d="M408.766 377.319C446.402 377.319 477.79 350.241 484.594 314.559C480.794 301.792 469.063 292.362 455.106 292.362H439.66V300.085C439.66 317.077 425.757 330.979 408.766 330.979H246.574V377.319H408.766Z" fill="url(#paint3_linear)"/>
<path d="M281.33 199.681C276.209 199.681 271.298 201.715 267.677 205.336C264.056 208.957 262.021 213.868 262.021 218.989C262.021 224.11 264.056 229.021 267.677 232.643C271.298 236.264 276.209 238.298 281.33 238.298C286.451 238.298 291.362 236.264 294.983 232.643C298.604 229.021 300.638 224.11 300.638 218.989C300.638 213.868 298.604 208.957 294.983 205.336C291.362 201.715 286.451 199.681 281.33 199.681ZM350.84 199.681C345.719 199.681 340.808 201.715 337.187 205.336C333.566 208.957 331.532 213.868 331.532 218.989C331.532 224.11 333.566 229.021 337.187 232.643C340.808 236.264 345.719 238.298 350.84 238.298C355.961 238.298 360.873 236.264 364.494 232.643C368.115 229.021 370.149 224.11 370.149 218.989C370.149 213.868 368.115 208.957 364.494 205.336C360.873 201.715 355.961 199.681 350.84 199.681ZM211.819 199.681C206.698 199.681 201.787 201.715 198.166 205.336C194.545 208.957 192.511 213.868 192.511 218.989C192.511 224.11 194.545 229.021 198.166 232.643C201.787 236.264 206.698 238.298 211.819 238.298C216.94 238.298 221.851 236.264 225.472 232.643C229.093 229.021 231.128 224.11 231.128 218.989C231.128 213.868 229.093 208.957 225.472 205.336C221.851 201.715 216.94 199.681 211.819 199.681Z" fill="#2188F4"/>
<defs>
<radialGradient id="paint0_radial" cx="0" cy="0" r="1" gradientUnits="userSpaceOnUse" gradientTransform="translate(303.5 303.5) rotate(90) scale(303.5)">
<stop stop-color="#7395FF"/>
<stop offset="1" stop-color="#28AFFF"/>
</radialGradient>
<linearGradient id="paint1_linear" x1="366.287" y1="266.681" x2="366.287" y2="525.554" gradientUnits="userSpaceOnUse">
<stop stop-color="white"/>
<stop offset="0.27111" stop-color="white"/>
<stop offset="1" stop-color="#9CE4FF"/>
</linearGradient>
<linearGradient id="paint2_linear" x1="439.972" y1="330.571" x2="107.363" y2="70.2313" gradientUnits="userSpaceOnUse">
<stop stop-color="#5A94FF"/>
<stop stop-color="#155DDE"/>
<stop offset="0.0069" stop-color="#6098FF"/>
<stop offset="0.007" stop-color="#74D4FF"/>
<stop offset="0.223958" stop-color="#C0ECFF"/>
<stop offset="0.459152" stop-color="#F2FBFF"/>
<stop offset="0.676801" stop-color="#BFE9FF"/>
<stop offset="1" stop-color="#00B1FF"/>
</linearGradient>
<linearGradient id="paint3_linear" x1="689.434" y1="334.84" x2="274.186" y2="334.84" gradientUnits="userSpaceOnUse">
<stop stop-color="#D6F9FF"/>
<stop stop-color="#C9F8FF"/>
<stop offset="0.0001" stop-color="#BEF3FF"/>
<stop offset="1" stop-color="#66B2FF"/>
</linearGradient>
</defs>
</svg>
